<?xml version="1.0" encoding="UTF-8" standalone="no"?><!DOCTYPE svg PUBLIC "-//W3C//DTD SVG 1.1//EN" "http://www.w3.org/Graphics/SVG/1.1/DTD/svg11.dtd"><svg width="100%" height="100%" viewBox="0 0 22 43" version="1.1" xmlns="http://www.w3.org/2000/svg" xmlns:xlink="http://www.w3.org/1999/xlink" xml:space="preserve" xmlns:serif="http://www.serif.com/" style="fill-rule:evenodd;clip-rule:evenodd;stroke-linejoin:round;stroke-miterlimit:1.41421;"><path d="M21.23,0.31l0,6.69l-3.83,0c-1.037,-0.131 -2.081,0.202 -2.85,0.91c-0.548,0.796 -0.809,1.756 -0.74,2.72l0,4.77l7.19,0l-1,7.47l-6.19,0l0,19.13l-7.54,0l0,-19.15l-6.27,0l0,-7.47l6.27,0l0,-5.53c0,-3.127 0.85,-5.553 2.55,-7.28c1.806,-1.776 4.281,-2.71 6.81,-2.57c1.872,-0.029 3.743,0.074 5.6,0.31Z" style="fill-rule:nonzero;"/></svg>