<?xml version="1.0" encoding="UTF-8" standalone="no"?><!DOCTYPE svg PUBLIC "-//W3C//DTD SVG 1.1//EN" "http://www.w3.org/Graphics/SVG/1.1/DTD/svg11.dtd"><svg width="100%" height="100%" viewBox="0 0 43 43" version="1.1" xmlns="http://www.w3.org/2000/svg" xmlns:xlink="http://www.w3.org/1999/xlink" xml:space="preserve" xmlns:serif="http://www.serif.com/" style="fill-rule:evenodd;clip-rule:evenodd;stroke-linejoin:round;stroke-miterlimit:1.41421;"><path d="M37.25,35.49l0,-17.72l-3.69,0c0.374,1.157 0.566,2.364 0.57,3.58c0.016,2.241 -0.59,4.443 -1.75,6.36c-1.156,1.922 -2.798,3.505 -4.76,4.59c-2,1.131 -4.262,1.717 -6.56,1.7c-3.436,0.05 -6.751,-1.289 -9.19,-3.71c-2.496,-2.319 -3.889,-5.594 -3.83,-9c-0.02,-1.205 0.145,-2.405 0.49,-3.56l-3.85,0l0,17.76c0,0.013 0,0.027 0,0.04c0,0.883 0.717,1.614 1.6,1.63l29.3,0c0.437,0.007 0.859,-0.163 1.17,-0.47c0.33,-0.31 0.512,-0.747 0.5,-1.2Zm-7.77,-14.57c0.027,-2.19 -0.874,-4.291 -2.48,-5.78c-1.592,-1.579 -3.758,-2.446 -6,-2.4c-2.21,-0.027 -4.34,0.834 -5.91,2.39c-1.602,1.491 -2.5,3.592 -2.47,5.78c-0.033,2.191 0.865,4.297 2.47,5.79c1.568,1.559 3.699,2.425 5.91,2.4c2.242,0.046 4.408,-0.821 6,-2.4c1.606,-1.489 2.507,-3.59 2.48,-5.78Zm7.76,-9.84l0,-4.52c0.002,-0.491 -0.192,-0.963 -0.54,-1.31c-0.341,-0.359 -0.815,-0.561 -1.31,-0.56l-4.78,0c-0.495,-0.001 -0.969,0.201 -1.31,0.56c-0.348,0.347 -0.542,0.819 -0.54,1.31l0,4.52c0,0.017 -0.001,0.033 -0.001,0.05c0,1.015 0.826,1.854 1.841,1.87l4.8,0c1.018,-0.011 1.85,-0.852 1.85,-1.87c0,-0.007 0,-0.013 0,-0.02l-0.01,-0.03Zm4.76,-5.69l0,31.23c-0.016,2.945 -2.435,5.364 -5.38,5.38l-31.23,0c-1.431,0.017 -2.807,-0.559 -3.8,-1.59c-1.028,-0.99 -1.604,-2.362 -1.59,-3.79l0,-31.23c-0.017,-1.431 0.559,-2.807 1.59,-3.8c0.993,-1.031 2.369,-1.607 3.8,-1.59l31.23,0c1.431,-0.017 2.807,0.559 3.8,1.59c1.027,0.994 1.599,2.37 1.58,3.8Z" style="fill-rule:nonzero;"/></svg>