<?xml version="1.0" encoding="UTF-8" standalone="no"?><!DOCTYPE svg PUBLIC "-//W3C//DTD SVG 1.1//EN" "http://www.w3.org/Graphics/SVG/1.1/DTD/svg11.dtd"><svg width="100%" height="100%" viewBox="0 0 52 43" version="1.1" xmlns="http://www.w3.org/2000/svg" xmlns:xlink="http://www.w3.org/1999/xlink" xml:space="preserve" xmlns:serif="http://www.serif.com/" style="fill-rule:evenodd;clip-rule:evenodd;stroke-linejoin:round;stroke-miterlimit:1.41421;"><path d="M51.78,5c-1.44,2.134 -3.24,4.002 -5.32,5.52l0,1.38c-0.006,2.889 -0.427,5.761 -1.25,8.53c-0.851,2.879 -2.117,5.618 -3.76,8.13c-1.677,2.586 -3.718,4.916 -6.06,6.92c-2.512,2.101 -5.386,3.728 -8.48,4.8c-3.408,1.215 -7.002,1.824 -10.62,1.8c-5.782,0.036 -11.448,-1.63 -16.29,-4.79c0.85,0.091 1.705,0.135 2.56,0.13c4.779,0.05 9.433,-1.551 13.17,-4.53c-4.528,-0.083 -8.528,-3.051 -9.92,-7.36c0.662,0.103 1.33,0.157 2,0.16c0.942,0 1.879,-0.121 2.79,-0.36c-2.396,-0.473 -4.552,-1.772 -6.09,-3.67c-1.589,-1.886 -2.445,-4.284 -2.41,-6.75l0,-0.13c1.47,0.825 3.116,1.284 4.8,1.34c-1.441,-0.959 -2.626,-2.257 -3.45,-3.78c-0.854,-1.552 -1.295,-3.298 -1.28,-5.07c-0.006,-1.875 0.495,-3.717 1.45,-5.33c2.654,3.26 5.962,5.927 9.71,7.83c3.787,1.942 7.948,3.044 12.2,3.23c-0.171,-0.799 -0.258,-1.613 -0.26,-2.43c-0.066,-2.798 1.019,-5.503 3,-7.48c4.122,-4.097 10.878,-4.097 15,0l0.21,0.22c2.413,-0.427 4.732,-1.277 6.85,-2.51c-0.768,2.466 -2.435,4.555 -4.67,5.85c2.111,-0.239 4.175,-0.796 6.12,-1.65Z" style="fill-rule:nonzero;"/></svg>