<?xml version="1.0" encoding="UTF-8" standalone="no"?><!DOCTYPE svg PUBLIC "-//W3C//DTD SVG 1.1//EN" "http://www.w3.org/Graphics/SVG/1.1/DTD/svg11.dtd"><svg width="100%" height="100%" viewBox="0 0 35 42" version="1.1" xmlns="http://www.w3.org/2000/svg" xmlns:xlink="http://www.w3.org/1999/xlink" xml:space="preserve" xmlns:serif="http://www.serif.com/" style="fill-rule:evenodd;clip-rule:evenodd;stroke-linejoin:round;stroke-miterlimit:1.41421;"><path d="M22.13,29.15l0,5c0,1.047 -0.303,1.57 -0.91,1.57c-0.409,-0.021 -0.793,-0.209 -1.06,-0.52l0,-7.11c0.264,-0.318 0.648,-0.514 1.06,-0.54c0.607,0 0.91,0.533 0.91,1.6Zm7.92,0l0,1.08l-2.1,0l0,-1.06c0,-1.06 0.353,-1.59 1.06,-1.59c0.707,0 1.04,0.53 1,1.59l0.04,-0.02Zm-22.63,-5.15l2.5,0l0,-2.14l-7.3,0l0,2.2l2.46,0l0,13.34l2.34,0l0,-13.4Zm6.75,13.4l2.09,0l0,-11.58l-2.09,0l0,8.86c-0.257,0.519 -0.742,0.889 -1.31,1c-0.003,0 -0.007,0 -0.01,0c-0.26,0 -0.475,-0.21 -0.48,-0.47c-0.005,-0.26 0,0 0,0c-0.017,-0.273 -0.017,-0.547 0,-0.82l0,-8.57l-2.14,0l0,9.18c-0.022,0.576 0.042,1.153 0.19,1.71c0.183,0.578 0.758,0.946 1.36,0.87c0.963,-0.117 1.832,-0.637 2.39,-1.43l0,1.25Zm10.05,-3.47l0,-4.6c0.037,-0.783 -0.037,-1.568 -0.22,-2.33c-0.156,-0.785 -0.87,-1.345 -1.67,-1.31c-0.889,0.069 -1.695,0.555 -2.17,1.31l0,-5.1l-2.08,0l0,15.5l2.09,0l0,-1.13c0.487,0.747 1.291,1.231 2.18,1.31c0.794,0.029 1.498,-0.53 1.65,-1.31c0.181,-0.77 0.255,-1.56 0.22,-2.35l0,0.01Zm7.92,-0.24l0,-0.3l-2.14,0c0.029,0.476 0.029,0.954 0,1.43c-0.027,0.49 -0.45,0.873 -0.94,0.85c-0.72,0 -1.08,-0.537 -1.08,-1.61l0,-2.06l4.19,0l0,-2.41c0.065,-0.953 -0.166,-1.903 -0.66,-2.72c-0.607,-0.759 -1.528,-1.203 -2.5,-1.203c-0.972,0 -1.893,0.444 -2.5,1.203c-0.502,0.814 -0.733,1.766 -0.66,2.72l0,4.05c-0.082,0.954 0.15,1.909 0.66,2.72c0.585,0.781 1.515,1.229 2.49,1.2c1.491,0.065 2.801,-1.031 3,-2.51c0.06,-0.451 0.09,-0.905 0.09,-1.36l0.05,0Zm-14.25,-21.39l0,-4.92c0,-1.073 -0.333,-1.61 -1,-1.61c-0.667,0 -1,0.537 -1,1.61l0,4.92c0,1.093 0.333,1.64 1,1.64c0.667,0 1,-0.547 1,-1.64Zm16.85,17.6c0.075,2.747 -0.13,5.494 -0.61,8.2c-0.203,0.895 -0.678,1.706 -1.36,2.32c-0.657,0.612 -1.497,0.991 -2.39,1.08c-4.322,0.388 -8.661,0.552 -13,0.49c-4.339,0.062 -8.678,-0.102 -13,-0.49c-0.889,-0.094 -1.724,-0.473 -2.38,-1.08c-0.694,-0.606 -1.175,-1.419 -1.37,-2.32c-0.493,-2.704 -0.704,-5.452 -0.63,-8.2c-0.075,-2.747 0.13,-5.494 0.61,-8.2c0.209,-0.902 0.696,-1.717 1.39,-2.33c0.666,-0.614 1.51,-0.999 2.41,-1.1c2.86,-0.313 7.193,-0.47 13,-0.47c5.807,0 10.14,0.157 13,0.47c1.843,0.231 3.351,1.606 3.75,3.42c0.477,2.709 0.671,5.461 0.58,8.21Zm-23.39,-29.9l2.39,0l-2.83,9.35l0,6.35l-2.34,0l0,-6.35c-0.367,-1.696 -0.845,-3.366 -1.43,-5c-0.58,-1.567 -1.09,-3.017 -1.53,-4.35l2.49,0l1.67,6.16l1.58,-6.16Zm8.65,7.8l0,4.1c0.077,0.966 -0.154,1.933 -0.66,2.76c-0.573,0.794 -1.513,1.243 -2.49,1.19c-0.966,0.039 -1.891,-0.408 -2.46,-1.19c-0.5,-0.829 -0.731,-1.794 -0.66,-2.76l0,-4.1c-0.073,-0.96 0.158,-1.919 0.66,-2.74c0.569,-0.782 1.494,-1.229 2.46,-1.19c0.977,-0.053 1.917,0.396 2.49,1.19c0.502,0.821 0.733,1.78 0.66,2.74Zm7.87,-3.8l0,11.7l-2.13,0l0,-1.27c-0.553,0.811 -1.434,1.341 -2.41,1.45c-0.59,0.041 -1.137,-0.321 -1.33,-0.88c-0.15,-0.574 -0.214,-1.167 -0.19,-1.76l0,-9.24l2.13,0l0,8.6c-0.018,0.273 -0.018,0.547 0,0.82c-0.001,0.01 -0.001,0.02 -0.001,0.03c0,0.262 0.21,0.48 0.471,0.49c0.568,-0.112 1.052,-0.482 1.31,-1l0,-8.94l2.16,0l-0.01,0Z" style="fill-rule:nonzero;"/></svg>